HIERARCHY
ROOT Hips
{
    OFFSET   0.000000   0.000000   0.000000
    CHANNELS 6 Xposition Yposition Zposition Zrotation Xrotation Yrotation
    JOINT Chest
    {
        OFFSET   0.000000   8.007230   0.000000
        CHANNELS 3 Zrotation Xrotation Yrotation
        JOINT Chest2
        {
            OFFSET   0.000000  22.077100   0.000000
            CHANNELS 3 Zrotation Xrotation Yrotation
            JOINT Neck
            {
                OFFSET   0.000000  23.255100   0.000000
                CHANNELS 3 Zrotation Xrotation Yrotation
                JOINT Head
                {
                    OFFSET   0.000000  14.370100   1.956600
                    CHANNELS 3 Zrotation Xrotation Yrotation
                    End Site
                    {
                        OFFSET   0.000000  19.566000   0.000000
                    }
                }
            }
            JOINT LeftCollar
            {
                OFFSET   3.911900  19.017000  -0.467063
                CHANNELS 3 Zrotation Xrotation Yrotation
                JOINT LeftShoulder
                {
                    OFFSET  10.383700   0.000000   0.000000
                    CHANNELS 3 Zrotation Xrotation Yrotation
                    JOINT LeftElbow
                    {
                        OFFSET  26.662100   0.001193   0.000980
                        CHANNELS 3 Zrotation Xrotation Yrotation
                        JOINT LeftWrist
                        {
                            OFFSET  28.869000  -0.000059  -0.000082
                            CHANNELS 3 Zrotation Xrotation Yrotation
                            JOINT LeftFinger0
                            {
                                OFFSET   2.044650  -2.323450   3.252850
                                CHANNELS 3 Zrotation Xrotation Yrotation
                                JOINT LeftFinger01
                                {
                                    OFFSET   3.088130   0.000000   0.000000
                                    CHANNELS 3 Zrotation Xrotation Yrotation
                                    JOINT LeftFinger02
                                    {
                                        OFFSET   2.639460   0.000000   0.000000
                                        CHANNELS 3 Zrotation Xrotation Yrotation
                                        End Site
                                        {
                                            OFFSET   2.582190   0.000000   0.000000
                                        }
                                    }
                                }
                            }
                            JOINT LeftFinger1
                            {
                                OFFSET   8.364480   0.000000   3.252850
                                CHANNELS 3 Zrotation Xrotation Yrotation
                                JOINT LeftFinger11
                                {
                                    OFFSET   4.646930   0.000000   0.000000
                                    CHANNELS 3 Zrotation Xrotation Yrotation
                                    JOINT LeftFinger12
                                    {
                                        OFFSET   2.323470   0.000000   0.000000
                                        CHANNELS 3 Zrotation Xrotation Yrotation
                                        End Site
                                        {
                                            OFFSET   2.273050   0.000000   0.000000
                                        }
                                    }
                                }
                            }
                            JOINT LeftFinger2
                            {
                                OFFSET   8.364490   0.000016   1.078090
                                CHANNELS 3 Zrotation Xrotation Yrotation
                                JOINT LeftFinger21
                                {
                                    OFFSET   5.111610   0.000000   0.000000
                                    CHANNELS 3 Zrotation Xrotation Yrotation
                                    JOINT LeftFinger22
                                    {
                                        OFFSET   2.788150   0.000016   0.000000
                                        CHANNELS 3 Zrotation Xrotation Yrotation
                                        End Site
                                        {
                                            OFFSET   2.727660   0.000000   0.000000
                                        }
                                    }
                                }
                            }
                            JOINT LeftFinger3
                            {
                                OFFSET   7.899780   0.000015  -1.078090
                                CHANNELS 3 Zrotation Xrotation Yrotation
                                JOINT LeftFinger31
                                {
                                    OFFSET   4.646930   0.000000   0.000000
                                    CHANNELS 3 Zrotation Xrotation Yrotation
                                    JOINT LeftFinger32
                                    {
                                        OFFSET   2.323470   0.000000   0.000000
                                        CHANNELS 3 Zrotation Xrotation Yrotation
                                        End Site
                                        {
                                            OFFSET   2.273050   0.000000   0.000000
                                        }
                                    }
                                }
                            }
                            JOINT LeftFinger4
                            {
                                OFFSET   7.435090   0.000000  -3.252850
                                CHANNELS 3 Zrotation Xrotation Yrotation
                                JOINT LeftFinger41
                                {
                                    OFFSET   3.717550   0.000000   0.000000
                                    CHANNELS 3 Zrotation Xrotation Yrotation
                                    JOINT LeftFinger42
                                    {
                                        OFFSET   1.858770   0.000000   0.000000
                                        CHANNELS 3 Zrotation Xrotation Yrotation
                                        End Site
                                        {
                                            OFFSET   1.818440   0.000000   0.000000
                                        }
                                    }
                                }
                            }
                        }
                    }
                }
            }
            JOINT RightCollar
            {
                OFFSET  -3.911910  19.017000  -0.467062
                CHANNELS 3 Zrotation Xrotation Yrotation
                JOINT RightShoulder
                {
                    OFFSET -10.383700   0.000014   0.000000
                    CHANNELS 3 Zrotation Xrotation Yrotation
                    JOINT RightElbow
                    {
                        OFFSET -26.662100   0.001225   0.001091
                        CHANNELS 3 Zrotation Xrotation Yrotation
                        JOINT RightWrist
                        {
                            OFFSET -28.869000  -0.000020  -0.000085
                            CHANNELS 3 Zrotation Xrotation Yrotation
                            JOINT RightFinger0
                            {
                                OFFSET  -2.044650  -2.323490   3.252850
                                CHANNELS 3 Zrotation Xrotation Yrotation
                                JOINT RightFinger01
                                {
                                    OFFSET  -3.088130   0.000000   0.000000
                                    CHANNELS 3 Zrotation Xrotation Yrotation
                                    JOINT RightFinger02
                                    {
                                        OFFSET  -2.639460   0.000000   0.000000
                                        CHANNELS 3 Zrotation Xrotation Yrotation
                                        End Site
                                        {
                                            OFFSET  -2.582190   0.000000   0.000000
                                        }
                                    }
                                }
                            }
                            JOINT RightFinger1
                            {
                                OFFSET  -8.364480   0.000000   3.252850
                                CHANNELS 3 Zrotation Xrotation Yrotation
                                JOINT RightFinger11
                                {
                                    OFFSET  -4.646930   0.000000   0.000000
                                    CHANNELS 3 Zrotation Xrotation Yrotation
                                    JOINT RightFinger12
                                    {
                                        OFFSET  -2.323470   0.000000   0.000000
                                        CHANNELS 3 Zrotation Xrotation Yrotation
                                        End Site
                                        {
                                            OFFSET  -2.273050   0.000000   0.000000
                                        }
                                    }
                                }
                            }
                            JOINT RightFinger2
                            {
                                OFFSET  -8.364480   0.000000   1.078090
                                CHANNELS 3 Zrotation Xrotation Yrotation
                                JOINT RightFinger21
                                {
                                    OFFSET  -5.111620   0.000000   0.000000
                                    CHANNELS 3 Zrotation Xrotation Yrotation
                                    JOINT RightFinger22
                                    {
                                        OFFSET  -2.788160   0.000000   0.000000
                                        CHANNELS 3 Zrotation Xrotation Yrotation
                                        End Site
                                        {
                                            OFFSET  -2.727660   0.000000   0.000000
                                        }
                                    }
                                }
                            }
                            JOINT RightFinger3
                            {
                                OFFSET  -7.899780   0.000000  -1.078090
                                CHANNELS 3 Zrotation Xrotation Yrotation
                                JOINT RightFinger31
                                {
                                    OFFSET  -4.646930   0.000000   0.000000
                                    CHANNELS 3 Zrotation Xrotation Yrotation
                                    JOINT RightFinger32
                                    {
                                        OFFSET  -2.323470   0.000000   0.000000
                                        CHANNELS 3 Zrotation Xrotation Yrotation
                                        End Site
                                        {
                                            OFFSET  -2.273050   0.000000   0.000000
                                        }
                                    }
                                }
                            }
                            JOINT RightFinger4
                            {
                                OFFSET  -7.435090   0.000000  -3.252850
                                CHANNELS 3 Zrotation Xrotation Yrotation
                                JOINT RightFinger41
                                {
                                    OFFSET  -3.717550   0.000000   0.000000
                                    CHANNELS 3 Zrotation Xrotation Yrotation
                                    JOINT RightFinger42
                                    {
                                        OFFSET  -1.858760   0.000000   0.000000
                                        CHANNELS 3 Zrotation Xrotation Yrotation
                                        End Site
                                        {
                                            OFFSET  -1.818440   0.000000   0.000000
                                        }
                                    }
                                }
                            }
                        }
                    }
                }
            }
        }
    }
    JOINT LeftHip
    {
        OFFSET   9.783030   0.000000   0.000000
        CHANNELS 3 Zrotation Xrotation Yrotation
        JOINT LeftKnee
        {
            OFFSET   0.000063 -41.789100   0.000608
            CHANNELS 3 Zrotation Xrotation Yrotation
            JOINT LeftAnkle
            {
                OFFSET   0.000048 -41.133200  -0.000184
                CHANNELS 3 Zrotation Xrotation Yrotation
                JOINT LeftToe
                {
                    OFFSET   0.000000  -6.358960  14.674500
                    CHANNELS 3 Zrotation Xrotation Yrotation
                    End Site
                    {
                        OFFSET   0.000000   0.000000   3.913200
                    }
                }
            }
        }
    }
    JOINT RightHip
    {
        OFFSET  -9.783030   0.000000   0.000000
        CHANNELS 3 Zrotation Xrotation Yrotation
        JOINT RightKnee
        {
            OFFSET   0.000071 -41.789100   0.001239
            CHANNELS 3 Zrotation Xrotation Yrotation
            JOINT RightAnkle
            {
                OFFSET   0.000037 -41.133200  -0.000166
                CHANNELS 3 Zrotation Xrotation Yrotation
                JOINT RightToe
                {
                    OFFSET   0.000000  -6.358960  14.674500
                    CHANNELS 3 Zrotation Xrotation Yrotation
                    End Site
                    {
                        OFFSET   0.000000   0.000000   3.913200
                    }
                }
            }
        }
    }
}
MOTION
Frames: 4
Frame Time:   0.016667
  1.304190  89.461400  -2.321480  -2.224330  -1.628260   2.946210   1.840770   2.573230  -1.001700   3.731930   5.112490  -2.088830  -0.115374  -0.075321   0.004769  -0.189839  -0.146749   8.163900  -8.763440   2.904550   1.181390 -66.368900  11.812400  -7.330020  -2.053790  -9.571520  -7.208130   1.042220 -13.818800   4.871260  40.620300  29.051200 -68.799400 -18.363000   0.005316   0.003561  -4.181500  -0.000066  -0.011220 -27.017300   5.694780 -11.014300 -22.558700   0.002211   0.003904 -15.791100   0.002374   0.004125 -27.996800   1.632780  -3.067400 -32.291800   0.001223  -0.007739 -21.506300   0.003316  -0.000496 -27.382400  -2.432990   4.683910 -29.150600  -0.002197   0.000808 -19.414300   0.004694  -0.004307 -27.294800  -2.425230   4.687930 -41.091100   0.000241  -0.000637 -27.366700   0.001819  -0.003749   7.146620  -0.331178   8.798930  68.413200  -0.809884   0.933110   0.284683 -10.401200   5.879480  -8.129290 -11.855100   5.898770 -42.517600  30.882000  68.731400  21.492600  -0.000653  -0.004963   5.746270   0.002341  -0.000409  29.703200   4.450530   7.746230  24.549200   0.000586  -0.012114  17.184500  -0.003735  -0.004015  27.995200   4.216910   7.875310  34.092000   0.007599  -0.005813  22.705200  -0.000341  -0.004318  28.558100   2.084490   3.822490  37.886100   0.004391  -0.003288  25.232100  -0.001431  -0.009940  35.154400   0.215747   0.290648  52.732600  -0.012683  -0.004841  35.119900  -0.003085  -0.006456   5.041770   3.696980   2.589050   1.639590   0.000596  11.744300  -2.267110  -0.772975   0.573435  -0.000000   0.000000  -0.000000  -0.162358   0.931955  -4.830760   1.514600   3.245790 -11.759100   1.347060  -2.555190  -3.795060  -0.000000   0.000000   0.000000
  1.300030  89.461400  -2.321480  -2.224480  -1.629150   2.939110   1.840750   2.573980  -0.999629   3.731820   5.114040  -2.084720  -0.122336  -0.075612   0.004798  -0.201335  -0.147044   8.165190  -8.766080   2.891460   1.177080 -66.345600  11.799100  -7.337500  -2.047020  -9.564980  -7.205980   1.034640 -13.816900   4.898730  40.625800  29.053300 -68.802300 -18.375000   0.005315   0.003566  -4.187510  -0.000064  -0.011227 -27.021900   5.684370 -10.989000 -22.558700   0.002213   0.003903 -15.791100   0.002375   0.004123 -27.997500   1.626300  -3.055500 -32.281700   0.001224  -0.007736 -21.499600   0.003317  -0.000496 -27.380800  -2.442300   4.702800 -29.134200  -0.002195   0.000814 -19.403400   0.004693  -0.004306 -27.288700  -2.434230   4.706980 -41.083300   0.000237  -0.000629 -27.361500   0.001820  -0.003745   7.153910  -0.363028   8.799590  68.411900  -0.799009   0.909358   0.284186 -10.402600   5.876810  -8.125600 -11.867400   5.897180 -42.519900  30.900300  68.747000  21.507700  -0.000655  -0.004966   5.753850   0.002346  -0.000406  29.698700   4.439510   7.728750  24.544400   0.000581  -0.012119  17.181100  -0.003728  -0.004017  27.992200   4.206640   7.857380  34.055800   0.007601  -0.005810  22.681200  -0.000334  -0.004317  28.559900   2.070750   3.797430  37.867000   0.004386  -0.003286  25.219400  -0.001422  -0.009939  35.147400   0.215525   0.291866  52.722000  -0.012682  -0.004840  35.112800  -0.003082  -0.006455   5.041840   3.695930   2.585090   1.639760   0.012384  11.750400  -2.268340  -0.779553   0.577362   0.000000   0.000000  -0.000000  -0.162418   0.932118  -4.830800   1.519990   3.245110 -11.759100   1.342730  -2.554880  -3.784070  -0.000000   0.000000   0.000000
  1.293380  89.461400  -2.321500  -2.224590  -1.632350   2.927830   1.840720   2.575950  -0.996656   3.731630   5.118080  -2.078840  -0.134423  -0.075903   0.004828  -0.221252  -0.147457   8.174180  -8.771680   2.871440   1.169700 -66.307600  11.778200  -7.349370  -2.036020  -9.555980  -7.198020   1.020780 -13.806600   4.945630  40.631300  29.055300 -68.805200 -18.387000   0.005315   0.003574  -4.193520  -0.000061  -0.011241 -27.027000   5.671290 -10.963600 -22.558700   0.002214   0.003899 -15.791100   0.002376   0.004121 -27.998200   1.619830  -3.043600 -32.263100   0.001224  -0.007726 -21.487200   0.003317  -0.000496 -27.379200  -2.451610   4.721680 -29.107200  -0.002188   0.000832 -19.385400   0.004693  -0.004304 -27.277400  -2.443230   4.726030 -41.067500   0.000231  -0.000611 -27.350900   0.001822  -0.003733   7.167830  -0.415536   8.804050  68.405500  -0.780925   0.868241   0.283047 -10.411800   5.866310  -8.118740 -11.879900   5.886070 -42.519800  30.923800  68.758100  21.532500  -0.000657  -0.004971   5.766270   0.002350  -0.000404  29.685100   4.420170   7.699750  24.531300   0.000571  -0.012123  17.171900  -0.003711  -0.004021  27.987600   4.189410   7.827170  33.998500   0.007605  -0.005806  22.643000  -0.000313  -0.004315  28.562600   2.050340   3.760240  37.836200   0.004379  -0.003276  25.198900  -0.001402  -0.009936  35.133300   0.215302   0.295127  52.700900  -0.012675  -0.004833  35.098800  -0.003079  -0.006452   5.042070   3.694900   2.578520   1.640090   0.028928  11.759800  -2.270110  -0.786666   0.583972  -0.000000   0.000000  -0.000000  -0.162470   0.933261  -4.830850   1.528730   3.243450 -11.759100   1.335480  -2.554290  -3.766570   0.000000   0.000000   0.000000
  1.288630  89.461500  -2.323500  -2.224460  -1.638490   2.919440   1.840630   2.579100  -0.995101   3.731450   5.124450  -2.075860  -0.145485  -0.075864   0.004820  -0.239462  -0.147634   8.200980  -8.779040   2.859360   1.161720 -66.278000  11.764500  -7.358210  -2.028200  -9.553430  -7.182450   1.004960 -13.776100   4.987660  40.639300  29.058300 -68.801200 -18.373000   0.005315   0.003581  -4.186540  -0.000067  -0.011258 -27.017400   5.668150 -10.965500 -22.550600   0.002212   0.003891 -15.785400   0.002375   0.004122 -27.997600   1.625060  -3.053670 -32.239400   0.001221  -0.007709 -21.471400   0.003317  -0.000496 -27.377500  -2.447280   4.714180 -29.081000  -0.002174   0.000865 -19.368000   0.004694  -0.004302 -27.261600  -2.438280   4.718860 -41.043300   0.000225  -0.000584 -27.334800   0.001824  -0.003719   7.184190  -0.458754   8.815910  68.391300  -0.765844   0.826928   0.282123 -10.432100   5.847910  -8.110610 -11.870100   5.858090 -42.521200  30.934100  68.741200  21.551600  -0.000651  -0.004973   5.775820   0.002344  -0.000411  29.658500   4.401530   7.675860  24.507800   0.000557  -0.012121  17.155400  -0.003685  -0.004024  27.984500   4.174670   7.801050  33.956200   0.007606  -0.005802  22.614800  -0.000271  -0.004307  28.562300   2.039290   3.739990  37.812800   0.004376  -0.003252  25.183300  -0.001377  -0.009933  35.117200   0.215358   0.300510  52.676700  -0.012659  -0.004812  35.082700  -0.003081  -0.006447   5.043770   3.699960   2.572180   1.640780   0.035214  11.766700  -2.271040  -0.787289   0.589811  -0.000000   0.000000   0.000000  -0.162274   0.937505  -4.830880   1.535260   3.240160 -11.764900   1.329950  -2.553410  -3.754430   0.000000   0.000000   0.000000
